<svg xmlns="http://www.w3.org/2000/svg" viewBox="0 0 460 330" fill="none"><circle cx="232" cy="164" r="139" fill="#dfe9d3"/><ellipse cx="235" cy="289" rx="174" ry="16" fill="#b7c5ac" opacity=".24"/><g transform="translate(82 8) scale(.83)"><ellipse cx="164" cy="193" rx="78" ry="9" fill="#203d34" opacity=".07"/><g transform="rotate(-9 160 100)"><rect x="64" y="44" width="192" height="128" rx="14" fill="#fffdf7" stroke="#5b8d74" stroke-width="3"/><path d="M65 63q0-18 16-18h158q16 0 16 18v18H65Z" fill="#a5c6ab"/><rect x="83" y="101" width="49" height="50" rx="9" fill="#e3ede0"/><circle cx="108" cy="115" r="9" fill="#75957b"/><path d="M91 140c0-17 33-17 33 0" fill="#75957b"/><path d="M151 109h78m-78 18h60m-60 18h40" stroke="#a6b5a2" stroke-width="6" stroke-linecap="round"/><circle cx="230" cy="63" r="5" fill="#fffdf7"/></g><path d="m254 33 6-11m4 20 12-3M51 151l-10 6" stroke="#a9ba9e" stroke-width="3" stroke-linecap="round"/></g><g transform="translate(240 5) scale(.6)"><ellipse cx="164" cy="193" rx="78" ry="9" fill="#203d34" opacity=".07"/><g transform="rotate(-15 160 110)"><path d="M80 108c6-98 151-98 160 0-28-16-47-15-80 0-32-16-53-16-80 0Z" fill="#ddc49c" stroke="#ac8557" stroke-width="3"/><path d="M160 40c-27 12-35 39-35 63m35-63c27 12 35 39 35 63m-35-55v124c0 27 36 27 36 1" stroke="#987147" stroke-width="5" stroke-linecap="round"/><path d="M160 25v12" stroke="#987147" stroke-width="4" stroke-linecap="round"/></g></g><g transform="translate(230 80) scale(.7)"><ellipse cx="164" cy="193" rx="78" ry="9" fill="#203d34" opacity=".07"/><g transform="rotate(20 160 105)"><circle cx="139" cy="78" r="38" stroke="#99a9a5" stroke-width="8"/><path d="M133 89v89l12 11 12-11-9-9 9-9-9-9v-62" fill="#e9ca80" stroke="#af8e4e" stroke-width="3"/><circle cx="165" cy="101" r="22" fill="#d4ded9" stroke="#7b9588" stroke-width="3"/><path d="M162 120v60h11v-9h11v-12h-11v-39" fill="#d4ded9" stroke="#7b9588" stroke-width="3"/><rect x="172" y="62" width="46" height="61" rx="20" fill="#ad8864" stroke="#866445" stroke-width="3"/><circle cx="195" cy="77" r="4" fill="#f5e8d3"/></g></g><path d="M98 153h277v116a15 15 0 0 1-15 15H113a15 15 0 0 1-15-15Z" fill="#f7f1df" stroke="#b6b899" stroke-width="2"/><path d="m98 153 135 84L375 153" fill="#e2d8b9" stroke="#b6b899" stroke-width="2"/><path d="m98 271 98-74m179 74-97-74" stroke="#d3c9a9" stroke-width="2"/><circle cx="238" cy="230" r="29" fill="#75956e"/><path d="m223 230 10 10 21-23" stroke="#f8f5e9" stroke-width="5" stroke-linecap="round" stroke-linejoin="round"/><path d="m73 136-10-15m326 12 11-13M206 18l-2-12" stroke="#8aa77a" stroke-width="3" stroke-linecap="round"/><path d="M72 229c-20-28-21-54-4-67 21 23 21 50 4 67Z" fill="#96ae82"/><path d="M72 229c-1-27 11-48 27-48 6 29-6 48-27 48Z" fill="#b7c49c"/><path d="M72 250v-50" stroke="#718e65" stroke-width="2"/><circle cx="388" cy="204" r="5" fill="#a4b28f"/></svg>
